<?xml version="1.0" standalone="no"?>
<!DOCTYPE svg PUBLIC "-//W3C//DTD SVG 20010904//EN"
  "http://www.w3.org/TR/2001/REC-SVG-20010904/DTD/svg10.dtd">
<svg version="1.0" xmlns="http://www.w3.org/2000/svg"
  width="700.000000pt" height="700.000000pt" viewBox="0 0 700.000000 700.000000"
  preserveAspectRatio="xMidYMid meet">
<metadata>
Created by potrace 1.14, written by Peter Selinger 2001-2017
</metadata>
<g transform="translate(0.000000,700.000000) scale(0.100000,-0.100000)"
fill="#000000" stroke="none">
<path d="M1653 4796 c-165 -32 -279 -89 -363 -183 -47 -52 -108 -166 -142
-263 -49 -140 -49 -155 -49 -841 0 -667 2 -706 42 -831 83 -257 220 -394 461
-460 74 -20 105 -23 283 -23 162 0 213 4 270 19 189 50 300 135 373 286 73
151 84 207 89 448 l5 212 -266 0 -266 0 0 -181 c0 -342 -46 -426 -231 -417
-68 3 -82 7 -116 34 -47 37 -78 99 -93 184 -7 45 -10 282 -8 760 3 645 5 699
22 753 34 103 121 156 235 143 101 -12 161 -66 181 -162 6 -27 13 -131 17
-231 l6 -183 258 0 259 0 2 128 c3 244 -7 323 -58 443 -83 198 -194 298 -392
351 -100 26 -409 35 -519 14z"/>
<path d="M3325 4798 c-2 -7 -108 -578 -235 -1268 -127 -690 -234 -1274 -239
-1298 l-9 -42 241 2 241 3 43 255 c23 140 45 270 48 288 l6 32 199 0 c153 0
200 -3 200 -12 0 -7 18 -134 40 -283 22 -148 40 -273 40 -277 0 -5 106 -8 236
-8 l237 0 -6 37 c-4 21 -111 611 -239 1311 l-232 1272 -283 0 c-218 0 -285 -3
-288 -12z m365 -1182 c39 -270 70 -496 70 -503 0 -10 -32 -13 -145 -13 -144 0
-145 0 -145 23 0 17 135 982 141 1007 3 13 14 -56 79 -514z"/>
<path d="M4370 4615 l0 -195 200 0 200 0 0 -1115 0 -1115 265 0 265 0 0 1115
0 1115 195 0 195 0 0 195 0 195 -660 0 -660 0 0 -195z"/>
</g>
</svg>
